<?xml version="1.0" standalone="no"?>
<!DOCTYPE svg PUBLIC "-//W3C//DTD SVG 20010904//EN"
 "http://www.w3.org/TR/2001/REC-SVG-20010904/DTD/svg10.dtd">
<svg version="1.0" xmlns="http://www.w3.org/2000/svg"
 width="260.000000pt" height="260.000000pt" viewBox="0 0 260.000000 260.000000"
 preserveAspectRatio="xMidYMid meet">
<metadata>
Created by potrace 1.11, written by Peter Selinger 2001-2013
</metadata>
<g transform="translate(0.000000,260.000000) scale(0.100000,-0.100000)"
fill="#000000" stroke="none">
<path d="M0 1300 l0 -1300 1300 0 1300 0 0 1300 0 1300 -1300 0 -1300 0 0
-1300z m2270 183 l0 -908 -82 -82 c-46 -46 -86 -83 -90 -83 -5 0 -8 405 -8
900 l0 900 -678 0 -677 0 -90 -90 -90 -90 678 0 677 0 0 -905 0 -905 -815 0
-815 0 0 927 0 928 157 157 158 158 837 0 838 0 0 -907z"/>
</g>
</svg>
